<?xml version="1.0" standalone="no"?>
<!DOCTYPE svg PUBLIC "-//W3C//DTD SVG 20010904//EN"
 "http://www.w3.org/TR/2001/REC-SVG-20010904/DTD/svg10.dtd">
<svg version="1.0" xmlns="http://www.w3.org/2000/svg"
 width="4501.000000pt" height="4501.000000pt" viewBox="0 0 4501.000000 4501.000000"
 preserveAspectRatio="xMidYMid meet">
<metadata>
Created by potrace 1.11, written by Peter Selinger 2001-2013
</metadata>
<g transform="translate(0.000000,4501.000000) scale(0.100000,-0.100000)"
fill="#000000" stroke="none">
<path d="M21989 44416 c-2 -2 -96 -7 -209 -11 -277 -9 -463 -19 -750 -40 -36
-3 -101 -7 -145 -10 -44 -3 -100 -7 -125 -10 -25 -2 -76 -7 -115 -10 -71 -6
-116 -10 -215 -20 -30 -3 -75 -8 -100 -10 -70 -7 -152 -15 -190 -20 -49 -6
-206 -25 -260 -31 -25 -2 -61 -7 -80 -10 -19 -3 -50 -7 -68 -9 -18 -2 -52 -7
-75 -10 -23 -3 -60 -8 -82 -11 -22 -3 -51 -7 -65 -9 -14 -2 -45 -7 -70 -10
-25 -3 -56 -8 -70 -10 -14 -2 -45 -7 -70 -10 -25 -3 -70 -10 -100 -15 -30 -5
-71 -12 -90 -15 -19 -3 -46 -7 -60 -10 -14 -2 -45 -7 -70 -11 -24 -3 -47 -7
-50 -9 -3 -1 -27 -6 -55 -10 -27 -3 -110 -17 -182 -31 -73 -13 -150 -27 -170
-30 -21 -3 -41 -8 -44 -9 -3 -2 -28 -7 -55 -11 -27 -3 -52 -8 -55 -10 -3 -2
-21 -6 -40 -9 -19 -3 -47 -8 -64 -12 -16 -4 -33 -6 -37 -5 -4 1 -18 -2 -31 -7
-13 -5 -40 -12 -59 -15 -20 -3 -89 -17 -154 -31 -66 -14 -130 -28 -144 -31
-22 -5 -90 -20 -130 -29 -8 -2 -64 -15 -125 -29 -119 -26 -718 -178 -775 -196
-19 -6 -42 -13 -50 -15 -8 -2 -42 -11 -75 -20 -33 -9 -67 -18 -75 -20 -157
-40 -846 -255 -1035 -322 -38 -14 -77 -26 -85 -28 -71 -15 -988 -359 -1185
-444 -22 -10 -60 -26 -85 -36 -90 -36 -428 -180 -495 -211 -117 -53 -187 -84
-190 -84 -2 0 -55 -24 -117 -54 -62 -29 -169 -79 -238 -111 -186 -87 -874
-435 -1005 -510 -45 -25 -132 -73 -197 -108 -24 -13 -64 -36 -90 -50 -27 -15
-67 -38 -90 -51 -183 -101 -554 -322 -798 -475 -80 -49 -172 -107 -205 -128
-208 -129 -932 -621 -1065 -723 -19 -15 -116 -87 -215 -160 -147 -109 -428
-323 -495 -377 -8 -6 -69 -55 -135 -108 -165 -132 -179 -143 -355 -290 -149
-124 -370 -312 -380 -324 -3 -3 -36 -33 -75 -66 -38 -33 -77 -66 -85 -75 -8
-8 -35 -33 -60 -54 -25 -22 -87 -78 -139 -125 -51 -47 -105 -97 -120 -110
-200 -181 -783 -757 -996 -983 -135 -143 -289 -310 -356 -383 -30 -34 -88 -99
-130 -145 -42 -47 -107 -121 -145 -165 -38 -44 -71 -82 -74 -85 -7 -6 -199
-233 -301 -355 -94 -112 -373 -461 -459 -575 -36 -46 -70 -91 -77 -100 -35
-44 -172 -225 -199 -262 -17 -24 -56 -77 -86 -118 -224 -302 -626 -894 -857
-1260 -601 -954 -1154 -2007 -1591 -3030 -50 -118 -98 -228 -105 -245 -30 -68
-201 -502 -256 -650 -33 -88 -64 -169 -69 -180 -4 -11 -13 -33 -18 -50 -6 -16
-27 -75 -47 -130 -99 -270 -292 -866 -395 -1215 -88 -302 -216 -774 -250 -925
-7 -27 -13 -57 -15 -65 -34 -139 -76 -320 -79 -335 -2 -11 -21 -94 -41 -185
-41 -185 -74 -349 -111 -545 -8 -44 -19 -100 -24 -125 -5 -25 -17 -88 -25
-140 -9 -52 -18 -106 -21 -120 -2 -14 -7 -41 -10 -60 -2 -19 -7 -46 -10 -60
-6 -32 -11 -65 -19 -115 -3 -22 -7 -47 -10 -55 -2 -8 -6 -35 -9 -60 -3 -25 -8
-56 -11 -69 -2 -12 -7 -43 -9 -67 -3 -24 -10 -74 -17 -111 -6 -37 -12 -81 -14
-98 -4 -36 -14 -111 -20 -145 -2 -14 -7 -52 -11 -85 -3 -33 -8 -73 -10 -90 -8
-60 -14 -111 -19 -160 -3 -27 -10 -84 -15 -125 -5 -41 -12 -104 -15 -140 -3
-36 -8 -81 -10 -100 -3 -19 -7 -62 -10 -95 -3 -33 -8 -78 -10 -100 -2 -22 -6
-76 -10 -120 -3 -44 -8 -100 -10 -125 -5 -45 -13 -157 -20 -280 -3 -36 -7 -94
-9 -130 -3 -36 -8 -123 -11 -195 -4 -71 -8 -164 -10 -205 -24 -450 -24 -1537
0 -1940 2 -36 6 -128 10 -205 3 -77 8 -156 10 -175 1 -19 6 -87 10 -150 3 -63
8 -133 10 -155 2 -22 7 -80 10 -130 3 -49 8 -106 10 -125 4 -35 14 -145 20
-210 9 -99 27 -278 30 -300 2 -14 7 -52 10 -85 3 -33 10 -94 15 -135 5 -41 12
-97 15 -125 3 -27 8 -57 10 -65 2 -8 6 -42 10 -75 3 -33 8 -69 10 -80 2 -11 7
-42 10 -70 6 -53 13 -103 20 -145 3 -14 9 -59 15 -101 6 -41 13 -86 15 -100 3
-13 7 -37 10 -54 14 -97 25 -173 30 -195 3 -14 7 -38 10 -55 2 -16 9 -57 15
-90 6 -33 13 -76 16 -95 3 -19 7 -42 9 -50 2 -8 7 -31 10 -50 3 -19 15 -80 25
-135 11 -55 21 -111 24 -125 2 -14 9 -45 15 -70 5 -25 13 -61 16 -80 7 -43 81
-389 100 -470 2 -8 8 -37 15 -65 6 -27 29 -124 51 -215 22 -91 42 -172 44
-180 1 -8 15 -62 30 -120 15 -58 28 -112 30 -120 4 -15 50 -188 80 -295 9 -33
27 -98 41 -145 14 -47 27 -93 29 -103 2 -10 16 -57 30 -105 15 -47 29 -93 30
-102 21 -91 310 -969 370 -1120 7 -19 35 -93 61 -165 46 -128 59 -164 167
-441 83 -211 209 -515 307 -739 116 -265 132 -301 231 -510 23 -50 56 -122 75
-162 46 -98 292 -592 347 -694 24 -46 65 -122 90 -170 81 -153 130 -243 154
-281 13 -21 23 -40 23 -43 0 -4 56 -104 141 -252 11 -18 28 -50 40 -70 12 -21
43 -76 71 -123 27 -47 53 -92 58 -100 107 -187 560 -902 690 -1090 6 -8 67
-96 135 -195 68 -99 131 -189 139 -200 8 -11 70 -96 137 -190 112 -155 366
-495 478 -639 84 -106 344 -431 350 -436 4 -3 22 -25 41 -50 19 -25 37 -47 40
-50 3 -3 41 -48 85 -100 82 -97 123 -144 140 -164 6 -6 37 -43 70 -81 74 -87
295 -336 309 -350 6 -6 31 -33 55 -60 210 -237 737 -778 1037 -1065 212 -202
414 -390 484 -450 14 -12 45 -40 70 -63 25 -23 81 -74 125 -112 44 -39 82 -72
85 -75 46 -48 558 -473 805 -669 99 -78 187 -148 196 -155 56 -45 443 -334
589 -440 96 -69 185 -134 198 -143 13 -9 87 -60 165 -114 78 -54 147 -102 154
-108 7 -6 14 -11 17 -11 2 0 37 -23 78 -50 40 -28 80 -55 88 -60 44 -30 222
-146 345 -224 206 -132 229 -146 350 -220 61 -37 117 -71 125 -76 8 -5 96 -57
195 -115 99 -58 187 -110 195 -115 25 -15 123 -72 165 -95 22 -12 67 -37 100
-55 33 -18 94 -52 135 -75 186 -105 453 -244 775 -404 328 -163 489 -240 770
-366 332 -149 822 -353 1130 -470 83 -31 177 -67 210 -80 143 -56 472 -171
690 -242 94 -31 179 -60 190 -64 56 -23 695 -217 769 -234 10 -2 73 -20 140
-39 123 -35 235 -65 270 -72 10 -2 33 -8 50 -13 87 -29 676 -169 865 -207 12
-3 51 -11 85 -19 33 -8 72 -16 86 -19 14 -3 104 -21 200 -40 96 -19 191 -38
210 -41 19 -3 53 -10 75 -15 22 -5 58 -11 80 -14 34 -5 98 -16 230 -41 17 -3
73 -12 125 -21 52 -8 106 -17 120 -19 14 -3 43 -7 65 -10 22 -3 51 -7 65 -10
14 -3 45 -7 70 -10 25 -4 68 -10 95 -15 28 -6 70 -12 95 -14 25 -3 79 -10 120
-15 82 -12 111 -16 270 -36 25 -4 59 -8 76 -9 17 -2 53 -6 80 -10 27 -3 74 -8
104 -11 30 -3 71 -7 90 -10 58 -7 153 -17 190 -20 120 -9 202 -17 217 -19 10
-2 65 -7 123 -11 58 -4 112 -8 120 -10 8 -1 69 -6 135 -9 66 -4 140 -9 165
-11 40 -3 129 -9 345 -20 515 -27 1555 -27 2115 0 192 9 322 16 360 20 25 2
90 7 145 10 113 7 175 12 255 20 30 2 91 7 135 10 44 3 91 8 105 10 14 2 59 7
100 10 41 3 86 8 100 10 14 2 56 6 93 10 37 3 82 7 100 10 44 6 113 14 172 20
28 3 66 7 85 10 19 3 58 7 85 10 28 3 61 8 75 10 14 2 43 7 65 9 22 3 105 14
185 26 80 11 161 22 180 25 49 7 111 17 135 21 11 3 36 7 55 10 19 3 76 12
125 20 50 9 104 17 120 20 17 2 56 9 87 15 32 5 70 12 85 15 16 2 39 7 53 9
46 9 67 13 106 20 22 3 82 14 134 25 122 24 144 29 178 35 15 3 41 8 57 12 17
4 32 7 35 8 33 7 89 18 105 21 52 10 80 16 273 60 157 35 823 199 932 229 8 3
47 14 85 25 39 12 79 23 90 25 18 4 211 61 415 122 47 14 105 31 130 38 130
37 816 267 847 283 10 6 20 10 23 10 6 1 9 2 105 35 100 35 267 96 290 106 11
5 34 14 50 20 17 6 44 16 60 22 17 7 32 13 35 14 3 1 16 6 30 12 14 6 52 20
85 32 33 12 69 26 80 31 11 5 70 29 130 54 61 24 166 67 235 96 69 29 151 63
184 77 32 13 92 40 133 59 41 18 77 34 79 34 3 0 31 12 62 26 31 15 82 38 112
51 76 34 146 67 279 129 62 30 115 54 118 54 6 0 646 320 758 380 143 76 264
141 310 167 22 12 47 26 55 30 8 3 65 34 125 68 61 34 130 73 155 87 594 333
1356 821 1968 1260 177 127 629 464 642 478 3 3 37 30 75 60 56 44 184 144
275 217 46 36 108 87 130 106 14 12 48 40 75 61 28 22 55 45 61 51 6 5 32 28
59 50 27 22 59 49 71 60 13 11 44 38 70 60 52 43 298 258 326 284 9 9 23 21
30 26 13 10 209 188 283 256 22 21 60 56 85 79 340 314 995 975 1251 1264 24
28 55 62 69 76 14 14 52 57 85 94 33 38 71 81 85 96 14 15 48 54 75 86 28 32
57 65 65 74 8 9 37 43 65 75 27 33 62 74 76 90 28 30 164 194 229 275 19 24
40 48 45 54 6 6 38 45 70 86 33 41 62 77 66 80 12 11 298 381 416 539 68 91
130 173 136 181 20 25 329 458 399 560 88 128 312 463 318 475 3 6 22 36 43
68 36 56 65 101 142 222 74 116 283 462 387 640 202 346 457 814 598 1100 30
61 58 111 63 113 4 2 7 12 7 23 0 10 5 19 10 19 6 0 10 5 10 10 0 6 38 88 84
183 89 182 126 262 241 512 15 33 54 121 87 195 32 74 65 149 72 165 44 96 58
131 101 235 26 63 53 129 61 145 57 126 401 1036 427 1130 3 11 34 106 70 210
36 105 90 271 122 370 31 99 60 191 65 205 5 14 35 113 66 220 69 241 86 298
155 559 30 112 35 131 45 180 3 13 9 32 15 43 5 10 8 18 5 18 -2 0 0 16 6 36
5 20 11 44 13 53 2 9 20 81 40 161 20 80 38 156 41 170 3 13 14 63 25 110 11
47 31 137 44 200 13 63 32 149 40 190 9 41 19 86 21 100 2 14 9 45 14 70 5 25
12 56 14 70 2 14 9 48 15 75 19 96 86 470 96 540 4 22 8 47 10 55 2 8 7 38 11
65 3 28 8 59 10 70 2 11 7 40 10 65 3 25 7 52 9 60 2 8 6 33 9 55 3 22 11 72
16 110 12 74 14 88 24 175 4 30 9 66 11 80 10 75 15 110 20 160 4 30 8 66 10
80 2 14 7 52 10 85 3 33 8 71 10 85 2 14 7 54 10 90 4 36 8 76 10 90 2 14 7
59 10 100 4 41 9 89 11 105 2 17 6 68 9 115 4 47 8 96 10 110 2 14 7 68 10
120 4 52 8 111 10 130 2 19 7 87 10 150 4 63 8 131 10 150 2 20 6 98 10 175 3
77 8 172 10 210 23 390 23 1480 0 1900 -2 39 -7 126 -10 195 -3 69 -8 150 -10
180 -2 30 -7 102 -11 160 -10 164 -20 310 -29 395 -2 22 -7 76 -10 120 -3 44
-8 96 -11 115 -2 19 -7 58 -9 85 -13 133 -16 163 -20 200 -3 22 -7 60 -10 85
-2 25 -7 61 -9 80 -3 19 -7 62 -10 95 -4 33 -8 71 -11 85 -2 14 -7 49 -10 79
-4 30 -8 62 -10 71 -2 9 -6 41 -10 71 -3 30 -10 81 -15 114 -5 33 -12 80 -15
105 -3 25 -10 70 -15 100 -5 30 -12 75 -15 100 -7 48 -80 484 -90 535 -15 80
-30 159 -40 220 -3 17 -7 39 -9 50 -2 11 -23 112 -46 225 -22 113 -47 232 -55
265 -7 33 -23 103 -35 155 -11 52 -32 140 -45 195 -24 100 -63 264 -71 298 -2
9 -6 25 -9 35 -13 49 -26 99 -30 116 -42 180 -215 788 -315 1106 -133 426
-390 1158 -461 1317 -11 23 -19 45 -19 49 0 16 -265 663 -342 834 -116 258
-201 446 -261 575 -72 154 -385 779 -458 915 -157 293 -351 642 -389 700 -6 8
-13 22 -17 30 -4 8 -65 112 -136 230 -71 118 -136 226 -144 240 -7 14 -37 62
-66 107 -29 46 -70 111 -91 145 -175 279 -680 1028 -758 1123 -5 6 -73 98
-153 205 -79 107 -152 206 -162 219 -48 64 -307 397 -312 401 -4 3 -31 37 -61
75 -54 70 -338 415 -349 425 -3 3 -42 48 -86 100 -44 52 -84 100 -90 106 -5 6
-37 42 -70 80 -160 183 -233 264 -450 498 -380 410 -852 878 -1265 1256 -61
56 -194 176 -214 193 -12 10 -37 33 -56 51 -39 36 -439 380 -510 438 -25 20
-90 74 -146 120 -56 45 -116 95 -135 110 -19 14 -70 55 -113 90 -349 279
-1176 888 -1206 888 -4 0 -10 4 -12 8 -3 7 -116 87 -165 117 -10 6 -26 18 -37
28 -11 9 -25 17 -32 17 -7 0 -14 3 -16 8 -3 6 -80 60 -103 72 -11 5 -264 171
-305 199 -14 10 -32 21 -40 25 -8 3 -42 24 -75 46 -55 36 -553 336 -720 434
-38 23 -78 46 -90 53 -11 7 -27 16 -35 20 -8 4 -85 46 -170 93 -85 48 -195
108 -245 135 -49 26 -144 76 -210 111 -122 65 -711 359 -820 409 -33 16 -103
48 -155 73 -74 34 -446 200 -565 251 -11 5 -36 16 -55 24 -19 8 -91 38 -160
67 -69 28 -134 55 -145 60 -65 30 -572 226 -795 307 -211 77 -815 281 -852
288 -10 2 -22 6 -26 9 -10 6 -512 158 -617 186 -330 90 -484 131 -509 136 -16
3 -33 7 -38 10 -4 3 -16 7 -25 9 -16 3 -85 20 -123 29 -19 5 -199 49 -332 80
-57 14 -114 27 -128 30 -14 2 -68 14 -120 26 -101 23 -403 85 -461 95 -19 3
-41 8 -50 11 -9 2 -52 11 -95 19 -43 7 -140 25 -214 39 -74 13 -153 27 -174
30 -21 4 -48 8 -60 11 -12 2 -39 7 -61 10 -22 4 -80 13 -130 21 -123 20 -123
20 -185 28 -30 4 -77 11 -105 16 -27 5 -72 11 -100 14 -27 3 -61 8 -74 11 -14
2 -47 7 -75 10 -28 3 -64 8 -81 10 -60 9 -105 15 -157 20 -29 3 -62 7 -73 9
-11 2 -48 7 -82 11 -35 4 -75 8 -90 10 -16 2 -59 6 -98 10 -38 3 -81 8 -95 10
-14 2 -61 7 -105 10 -44 4 -91 8 -105 10 -14 2 -59 6 -100 10 -41 3 -95 8
-120 10 -76 7 -202 17 -255 20 -27 2 -95 6 -150 10 -117 8 -183 11 -360 20
-71 3 -173 8 -225 11 -110 7 -1466 15 -1471 10z"/>
</g>
</svg>
